<svg width="512" height="512" viewBox="0 0 512 512" fill="none" xmlns="http://www.w3.org/2000/svg">
<path d="M384.021 213.327L298.687 127.993M53.3535 458.66L125.553 450.638C134.375 449.658 138.785 449.168 142.908 447.833C146.565 446.649 150.046 444.976 153.255 442.86C156.873 440.474 160.01 437.337 166.286 431.061L448.021 149.327C471.585 125.763 471.585 87.5576 448.021 63.9934C424.457 40.4293 386.252 40.4293 362.687 63.9934L80.9531 345.727C74.6772 352.003 71.5392 355.141 69.1538 358.759C67.0374 361.968 65.3645 365.449 64.1805 369.106C62.8459 373.229 62.3558 377.639 61.3757 386.46L53.3535 458.66Z" stroke="#464F69" stroke-width="43.12" stroke-linecap="round" stroke-linejoin="round"/>
</svg>
