<svg width="512" height="513" viewBox="0 0 512 513" fill="none" xmlns="http://www.w3.org/2000/svg">
<path d="M200.43 413.759L212.898 441.801C216.605 450.148 222.654 457.24 230.311 462.218C237.969 467.195 246.906 469.844 256.039 469.842C265.172 469.844 274.109 467.195 281.767 462.218C289.425 457.24 295.473 450.148 299.18 441.801L311.648 413.759C316.086 403.809 323.552 395.514 332.981 390.056C342.47 384.582 353.447 382.251 364.341 383.395L394.848 386.642C403.929 387.603 413.094 385.908 421.231 381.764C429.368 377.62 436.128 371.204 440.691 363.294C445.26 355.389 447.437 346.328 446.957 337.211C446.478 328.093 443.362 319.31 437.989 311.928L419.926 287.111C413.495 278.208 410.058 267.492 410.113 256.509C410.111 245.556 413.58 234.885 420.021 226.026L438.084 201.208C443.457 193.827 446.572 185.044 447.052 175.926C447.532 166.808 445.355 157.747 440.786 149.842C436.222 141.933 429.462 135.517 421.325 131.373C413.188 127.228 404.024 125.534 394.943 126.494L364.436 129.742C353.542 130.886 342.565 128.554 333.076 123.081C323.628 117.592 316.16 109.253 311.743 99.2588L299.18 71.2173C295.473 62.8701 289.425 55.7777 281.767 50.8003C274.109 45.8229 265.172 43.1743 256.039 43.1758C246.906 43.1743 237.969 45.8229 230.311 50.8003C222.654 55.7777 216.605 62.8701 212.898 71.2173L200.43 99.2588C196.013 109.253 188.545 117.592 179.097 123.081C169.608 128.554 158.631 130.886 147.737 129.742L117.135 126.494C108.054 125.534 98.8898 127.228 90.7527 131.373C82.6157 135.517 75.8557 141.933 71.2924 149.842C66.7232 157.747 64.5464 166.808 65.0261 175.926C65.5058 185.044 68.6213 193.827 73.9946 201.208L92.0568 226.026C98.4982 234.885 101.967 245.556 101.965 256.509C101.967 267.462 98.4982 278.134 92.0568 286.992L73.9946 311.81C68.6213 319.192 65.5058 327.974 65.0261 337.092C64.5464 346.21 66.7232 355.271 71.2924 363.176C75.8602 371.081 82.621 377.494 90.7569 381.637C98.8928 385.781 108.055 387.478 117.135 386.524L147.642 383.277C158.536 382.132 169.513 384.464 179.002 389.937C188.485 395.411 195.988 403.752 200.43 413.759Z" stroke="#464F69" stroke-width="40.3761" stroke-linecap="round" stroke-linejoin="round"/>
<path d="M256.001 320.509C291.347 320.509 320.001 291.855 320.001 256.509C320.001 221.163 291.347 192.509 256.001 192.509C220.655 192.509 192.001 221.163 192.001 256.509C192.001 291.855 220.655 320.509 256.001 320.509Z" stroke="#464F69" stroke-width="40.3761" stroke-linecap="round" stroke-linejoin="round"/>
</svg>
